<?xml version="1.0" standalone="no"?>
<!DOCTYPE svg PUBLIC "-//W3C//DTD SVG 20010904//EN"
 "http://www.w3.org/TR/2001/REC-SVG-20010904/DTD/svg10.dtd">
<svg version="1.0" xmlns="http://www.w3.org/2000/svg"
 width="900.000000pt" height="900.000000pt" viewBox="0 0 900.000000 900.000000"
 preserveAspectRatio="xMidYMid meet">
<metadata>
Created by potrace 1.14, written by Peter Selinger 2001-2017
</metadata>
<g transform="translate(0.000000,900.000000) scale(0.100000,-0.100000)"
fill="#000000" stroke="none">
<path d="M4370 8639 c-332 -31 -564 -111 -729 -251 -89 -75 -196 -205 -278
-337 -114 -183 -2047 -3536 -2108 -3658 -126 -249 -220 -547 -266 -844 -30
-192 -33 -589 -6 -774 92 -620 359 -1159 791 -1591 430 -430 956 -694 1576
-791 164 -25 615 -26 780 0 516 80 955 270 1350 583 109 87 347 325 434 434
310 391 506 844 582 1342 24 161 30 533 10 703 -38 330 -128 639 -268 920 -28
55 -153 279 -280 498 l-229 397 956 1658 c527 911 966 1672 977 1690 l20 32
-1614 -1 c-887 -1 -1651 -5 -1698 -10z m2043 -741 c-11 -18 -261 -453 -557
-965 -296 -513 -541 -933 -545 -933 -3 1 -250 425 -549 943 l-543 942 43 13
c24 7 70 16 103 21 33 5 512 9 1063 10 l1004 1 -19 -32z m-2423 -1050 c636
-1102 1541 -2671 1578 -2738 52 -95 121 -268 155 -385 58 -202 79 -359 79
-575 1 -334 -65 -619 -212 -916 -370 -748 -1157 -1201 -1988 -1143 -738 52
-1382 484 -1711 1149 -154 311 -219 615 -208 974 9 317 75 584 211 852 57 113
1838 3203 1846 3204 3 0 115 -190 250 -422z"/>
<path d="M3545 4684 c-179 -26 -348 -79 -507 -161 -149 -76 -265 -160 -388
-283 -231 -231 -377 -513 -431 -831 -30 -172 -23 -442 14 -599 111 -468 410
-844 832 -1050 498 -243 1075 -202 1545 111 127 84 325 282 409 409 426 641
336 1467 -216 1990 -209 197 -460 329 -753 395 -73 16 -429 30 -505 19z"/>
</g>
</svg>
