<svg width="240" height="207" viewBox="0 0 240 207" fill="none" xmlns="http://www.w3.org/2000/svg">
<path d="M200.043 106.74C200.043 129.175 190.873 149.398 176.169 163.934C161.782 178.311 141.861 187.001 119.885 187.001C98.0665 187.001 78.1455 178.153 63.6001 163.934C48.8965 149.398 39.7266 129.175 39.7266 106.74C39.7266 62.3432 75.6159 26.4785 119.885 26.4785C164.153 26.4785 200.043 62.5012 200.043 106.74Z" fill="#EAEEF9"/>
<path d="M193.088 54.1274C196.668 54.1274 199.57 51.2272 199.57 47.6496C199.57 44.0721 196.668 41.1719 193.088 41.1719C189.508 41.1719 186.605 44.0721 186.605 47.6496C186.605 51.2272 189.508 54.1274 193.088 54.1274Z" fill="#EAEEF9"/>
<path d="M202.573 28.8477C205.018 28.8477 207 26.8671 207 24.4238C207 21.9806 205.018 20 202.573 20C200.128 20 198.146 21.9806 198.146 24.4238C198.146 26.8671 200.128 28.8477 202.573 28.8477Z" fill="#EAEEF9"/>
<path d="M42.257 53.9688C44.7018 53.9688 46.6838 51.9882 46.6838 49.5449C46.6838 47.1017 44.7018 45.1211 42.257 45.1211C39.8121 45.1211 37.8301 47.1017 37.8301 49.5449C37.8301 51.9882 39.8121 53.9688 42.257 53.9688Z" fill="#EAEEF9"/>
<path d="M15.2213 139.285C19.7619 139.285 23.4427 135.607 23.4427 131.069C23.4427 126.532 19.7619 122.854 15.2213 122.854C10.6808 122.854 7 126.532 7 131.069C7 135.607 10.6808 139.285 15.2213 139.285Z" fill="#EAEEF9"/>
<path d="M176.171 64.7129V163.933C161.783 178.311 141.862 187.001 119.886 187.001C98.068 187.001 78.147 178.153 63.6016 163.933V64.7129H176.171Z" fill="white"/>
<path opacity="0.5" d="M121.873 115.356L99.8496 93.3477L92.3594 100.833L114.383 122.841L121.873 115.356Z" fill="#979FAF"/>
<path opacity="0.5" d="M139.938 82.4069L107.07 115.252L114.561 122.737L147.428 89.892L139.938 82.4069Z" fill="#979FAF"/>
<path d="M148.661 136.283H91.1113V143.551H148.661V136.283Z" fill="#D5DAE5"/>
<path d="M148.661 152.242H91.1113V159.51H148.661V152.242Z" fill="#D5DAE5"/>
<path d="M134.589 168.357H105.182V175.625H134.589V168.357Z" fill="#D5DAE5"/>
</svg>
